<?xml version="1.0" encoding="UTF-8" standalone="no"?><svg xmlns="http://www.w3.org/2000/svg" xmlns:xlink="http://www.w3.org/1999/xlink" clip-rule="evenodd" fill="#764b36" fill-rule="evenodd" height="40.4" preserveAspectRatio="xMidYMid meet" stroke-linejoin="round" stroke-miterlimit="2" version="1" viewBox="4.2 13.1 58.3 40.4" width="58.3" zoomAndPan="magnify"><g id="change1_1"><path d="M42.443,34.639l-7.58,7.066c-0.861,0.804 -2.198,0.804 -3.06,0l-7.057,-6.579l-16.594,17.839c0.82,0.36 1.726,0.561 2.68,0.561c-0,-0 45.003,-0 45.003,-0c0.971,-0 1.894,-0.208 2.726,-0.582l-16.118,-18.305Zm-37.493,-17.97l16.514,15.397l-16.574,17.817c-0.463,-0.907 -0.723,-1.934 -0.723,-3.022c-0,-0 -0,-27.055 -0,-27.055c-0,-1.134 0.283,-2.202 0.783,-3.137Zm56.767,0c0.5,0.935 0.783,2.003 0.783,3.137l0,27.055c-0,1.068 -0.251,2.078 -0.699,2.973l-16.075,-18.257l15.991,-14.908Zm-3.336,-3.024l-25.048,23.352l-25.047,-23.352c0.784,-0.325 1.644,-0.504 2.546,-0.504c-0,0 45.003,0 45.003,0c0.902,0 1.762,0.179 2.546,0.504Z"/></g></svg>